<svg width="25" height="24" viewBox="0 0 25 24" fill="none" xmlns="http://www.w3.org/2000/svg">
<path d="M4.5 12C4.5 9.87827 5.34285 7.84344 6.84315 6.34315C8.34344 4.84285 10.3783 4 12.5 4C14.6217 4 16.6566 4.84285 18.1569 6.34315C19.6571 7.84344 20.5 9.87827 20.5 12V17.09C20.5 17.938 20.5 18.36 20.374 18.699C20.2738 18.9676 20.117 19.2116 19.9143 19.4143C19.7116 19.617 19.4676 19.7738 19.199 19.874C18.86 20 18.437 20 17.59 20H12.5C10.3783 20 8.34344 19.1571 6.84315 17.6569C5.34285 16.1566 4.5 14.1217 4.5 12Z" stroke="white" stroke-width="2"/>
<path d="M9.5 11H15.5M12.5 15H15.5" stroke="white" stroke-width="2" stroke-linecap="round" stroke-linejoin="round"/>
</svg>
