<svg width="17" height="16" viewBox="0 0 17 16" fill="none" xmlns="http://www.w3.org/2000/svg">
<path fill-rule="evenodd" clip-rule="evenodd" d="M7.83398 1.33398C6.94993 1.33398 6.10208 1.68517 5.47696 2.3103C4.85184 2.93542 4.50065 3.78326 4.50065 4.66732C4.50065 5.55137 4.85184 6.39922 5.47696 7.02434C6.10208 7.64946 6.94993 8.00065 7.83398 8.00065C8.71804 8.00065 9.56589 7.64946 10.191 7.02434C10.8161 6.39922 11.1673 5.55137 11.1673 4.66732C11.1673 3.78326 10.8161 2.93542 10.191 2.3103C9.56589 1.68517 8.71804 1.33398 7.83398 1.33398ZM5.83398 4.66732C5.83398 4.40467 5.88572 4.1446 5.98622 3.90195C6.08673 3.6593 6.23405 3.43882 6.41977 3.2531C6.60549 3.06739 6.82597 2.92007 7.06862 2.81956C7.31127 2.71905 7.57134 2.66732 7.83398 2.66732C8.09663 2.66732 8.3567 2.71905 8.59935 2.81956C8.842 2.92007 9.06248 3.06739 9.2482 3.2531C9.43392 3.43882 9.58123 3.6593 9.68174 3.90195C9.78225 4.1446 9.83398 4.40467 9.83398 4.66732C9.83398 5.19775 9.62327 5.70646 9.2482 6.08153C8.87313 6.4566 8.36442 6.66732 7.83398 6.66732C7.30355 6.66732 6.79484 6.4566 6.41977 6.08153C6.0447 5.70646 5.83398 5.19775 5.83398 4.66732ZM3.16732 12.334C3.16732 12.214 3.22732 12.008 3.44265 11.7347C3.65332 11.468 3.97865 11.1827 4.40998 10.92C5.27198 10.3933 6.48532 10.0007 7.83398 10.0007C8.08421 10.0007 8.32976 10.0138 8.57065 10.04C8.74658 10.0586 8.92271 10.0066 9.0603 9.89543C9.19789 9.78422 9.28566 9.62291 9.30432 9.44698C9.32297 9.27106 9.27097 9.09492 9.15976 8.95734C9.04856 8.81975 8.88724 8.73197 8.71132 8.71332C8.41984 8.68316 8.12702 8.66781 7.83398 8.66732C6.23732 8.66732 4.78398 9.12998 3.71532 9.78198C3.18198 10.1073 2.72598 10.4913 2.39665 10.9087C2.07265 11.318 1.83398 11.8093 1.83398 12.334C1.83398 12.8973 2.10798 13.3413 2.50265 13.658C2.87598 13.958 3.36865 14.1566 3.89198 14.2953C4.94398 14.5733 6.34798 14.6673 7.83398 14.6673L8.29065 14.664C8.3782 14.6628 8.46466 14.6444 8.54509 14.6098C8.62552 14.5752 8.69835 14.5251 8.75942 14.4624C8.82049 14.3996 8.8686 14.3255 8.90101 14.2441C8.93343 14.1628 8.9495 14.0759 8.94832 13.9883C8.94714 13.9008 8.92872 13.8143 8.89413 13.7339C8.85953 13.6534 8.80943 13.5806 8.74669 13.5195C8.68395 13.4585 8.60979 13.4104 8.52846 13.378C8.44712 13.3455 8.3602 13.3295 8.27265 13.3307L7.83398 13.334C6.37398 13.334 5.11198 13.2387 4.23398 13.006C3.79198 12.8893 3.50332 12.7513 3.33732 12.618C3.19198 12.5013 3.16732 12.4153 3.16732 12.334ZM12.5007 9.33398C12.6775 9.33398 12.847 9.40422 12.9721 9.52925C13.0971 9.65427 13.1673 9.82384 13.1673 10.0007V11.334H14.5007C14.6775 11.334 14.847 11.4042 14.9721 11.5292C15.0971 11.6543 15.1673 11.8238 15.1673 12.0007C15.1673 12.1775 15.0971 12.347 14.9721 12.4721C14.847 12.5971 14.6775 12.6673 14.5007 12.6673H13.1673V14.0007C13.1673 14.1775 13.0971 14.347 12.9721 14.4721C12.847 14.5971 12.6775 14.6673 12.5007 14.6673C12.3238 14.6673 12.1543 14.5971 12.0292 14.4721C11.9042 14.347 11.834 14.1775 11.834 14.0007V12.6673H10.5007C10.3238 12.6673 10.1543 12.5971 10.0292 12.4721C9.90422 12.347 9.83398 12.1775 9.83398 12.0007C9.83398 11.8238 9.90422 11.6543 10.0292 11.5292C10.1543 11.4042 10.3238 11.334 10.5007 11.334H11.834V10.0007C11.834 9.82384 11.9042 9.65427 12.0292 9.52925C12.1543 9.40422 12.3238 9.33398 12.5007 9.33398Z" fill="white"/>
</svg>
