<svg width="17" height="16" viewBox="0 0 17 16" fill="none" xmlns="http://www.w3.org/2000/svg">
<path d="M7.83268 2.66734H9.17735C10.4453 2.66734 11.0793 2.66734 11.4727 3.05801C11.6927 3.27534 11.79 3.56734 11.8327 4.00068M7.83268 13.334H9.17735C10.4453 13.334 11.0793 13.334 11.4727 12.9433C11.6927 12.726 11.79 12.434 11.8327 12.0007M14.4993 8.00068H9.83268M13.4993 6.33401C13.4993 6.33401 15.166 7.56068 15.166 8.00068C15.166 8.44068 13.4993 9.66734 13.4993 9.66734M3.42802 2.66734C3.16602 3.07868 3.16602 3.60934 3.16602 4.67001V11.3327C3.16602 12.3933 3.16602 12.924 3.42802 13.334C3.47468 13.4073 3.5269 13.4767 3.58468 13.542C3.90668 13.906 4.41735 14.052 5.43802 14.3433C6.46002 14.6353 6.97135 14.7813 7.34202 14.5627C7.40619 14.5246 7.46589 14.4794 7.52002 14.428C7.83268 14.1313 7.83268 13.6007 7.83268 12.536V3.46534C7.83268 2.40134 7.83268 1.87001 7.52002 1.57401C7.46589 1.52262 7.40619 1.47745 7.34202 1.43934C6.97202 1.22068 6.46002 1.36601 5.43735 1.65868C4.41735 1.95001 3.90668 2.09601 3.58402 2.46001C3.52668 2.52517 3.47452 2.59405 3.42802 2.66734Z" stroke="white" stroke-linecap="round" stroke-linejoin="round"/>
</svg>
