<svg width="25" height="24" viewBox="0 0 25 24" fill="none" xmlns="http://www.w3.org/2000/svg">
<path fill-rule="evenodd" clip-rule="evenodd" d="M1.5 3H23.5V19H1.5V3ZM3.5 5V17H21.5V5H3.5ZM16.5 23H8.5V21H16.5V23ZM8.5 8.5C8.5 8.89782 8.34196 9.27936 8.06066 9.56066C7.77936 9.84196 7.39782 10 7 10C6.60218 10 6.22064 9.84196 5.93934 9.56066C5.65804 9.27936 5.5 8.89782 5.5 8.5C5.5 8.10218 5.65804 7.72064 5.93934 7.43934C6.22064 7.15804 6.60218 7 7 7C7.39782 7 7.77936 7.15804 8.06066 7.43934C8.34196 7.72064 8.5 8.10218 8.5 8.5Z" fill="white"/>
</svg>
