<svg width="25" height="24" viewBox="0 0 25 24" fill="none" xmlns="http://www.w3.org/2000/svg">
<path d="M23.4503 14.0992C23.3715 14.1583 23.2818 14.2013 23.1864 14.2257C23.091 14.2502 22.9917 14.2556 22.8942 14.2417C22.7967 14.2277 22.7029 14.1947 22.6182 14.1445C22.5334 14.0944 22.4594 14.028 22.4003 13.9492C21.9482 13.3416 21.3598 12.8486 20.6824 12.5099C20.0051 12.1712 19.2576 11.9963 18.5003 11.9992C18.3528 11.9992 18.2086 11.9557 18.0857 11.8741C17.9628 11.7926 17.8667 11.6766 17.8093 11.5408C17.7704 11.4485 17.7504 11.3493 17.7504 11.2492C17.7504 11.149 17.7704 11.0499 17.8093 10.9576C17.8667 10.8217 17.9628 10.7058 18.0857 10.6242C18.2086 10.5427 18.3528 10.4992 18.5003 10.4992C18.9211 10.4992 19.3335 10.3811 19.6906 10.1584C20.0476 9.93579 20.3351 9.61746 20.5204 9.2396C20.7056 8.86175 20.7812 8.43952 20.7385 8.02087C20.6958 7.60223 20.5365 7.20395 20.2788 6.87127C20.0211 6.5386 19.6753 6.28487 19.2806 6.13889C18.8859 5.99292 18.4582 5.96056 18.046 6.04549C17.6338 6.13041 17.2538 6.32923 16.9489 6.61934C16.6441 6.90945 16.4267 7.27924 16.3215 7.68669C16.2969 7.7821 16.2537 7.87173 16.1945 7.95046C16.1352 8.02919 16.061 8.09547 15.9761 8.14553C15.8913 8.19559 15.7974 8.22843 15.6998 8.2422C15.6022 8.25596 15.5029 8.25038 15.4075 8.22575C15.3121 8.20113 15.2224 8.15796 15.1437 8.09869C15.065 8.03943 14.9987 7.96524 14.9486 7.88037C14.8986 7.79549 14.8657 7.70158 14.852 7.60401C14.8382 7.50643 14.8438 7.4071 14.8684 7.31169C15.0144 6.74667 15.2903 6.22353 15.6741 5.7839C16.0579 5.34426 16.539 5.00026 17.0791 4.77927C17.6192 4.55828 18.2034 4.4664 18.7853 4.51094C19.3672 4.55548 19.9307 4.73521 20.4309 5.03583C20.931 5.33645 21.3542 5.74966 21.6666 6.24258C21.979 6.73551 22.172 7.29454 22.2303 7.8752C22.2887 8.45586 22.2107 9.04212 22.0026 9.58733C21.7944 10.1325 21.4619 10.6217 21.0315 11.0158C22.0514 11.4573 22.9379 12.158 23.6031 13.0483C23.6622 13.1272 23.7051 13.2171 23.7294 13.3127C23.7537 13.4083 23.7589 13.5078 23.7447 13.6054C23.7305 13.703 23.6972 13.7969 23.6467 13.8816C23.5962 13.9664 23.5294 14.0403 23.4503 14.0992ZM18.399 19.8742C18.4533 19.9596 18.4897 20.055 18.5062 20.1548C18.5226 20.2546 18.5186 20.3567 18.4946 20.455C18.4705 20.5532 18.4268 20.6456 18.3661 20.7265C18.3054 20.8074 18.229 20.8753 18.1414 20.9259C18.0539 20.9765 17.9569 21.0089 17.8565 21.0211C17.7561 21.0333 17.6543 21.025 17.5571 20.9968C17.46 20.9687 17.3695 20.9211 17.2912 20.8571C17.213 20.793 17.1484 20.7138 17.1015 20.6242C16.6291 19.8242 15.9562 19.1612 15.1493 18.7006C14.3424 18.2401 13.4294 17.9978 12.5003 17.9978C11.5712 17.9978 10.6582 18.2401 9.85126 18.7006C9.04436 19.1612 8.37149 19.8242 7.89903 20.6242C7.85214 20.7138 7.78761 20.793 7.70932 20.8571C7.63102 20.9211 7.54058 20.9687 7.44343 20.9968C7.34629 21.025 7.24444 21.0333 7.14403 21.0211C7.04362 21.0089 6.94671 20.9765 6.85914 20.9259C6.77156 20.8753 6.69513 20.8074 6.63444 20.7265C6.57376 20.6456 6.53007 20.5532 6.506 20.455C6.48194 20.3567 6.478 20.2546 6.49441 20.1548C6.51083 20.055 6.54727 19.9596 6.60153 19.8742C7.32865 18.6249 8.43734 17.6417 9.76466 17.0692C9.01778 16.4973 8.46887 15.7058 8.19509 14.8059C7.92132 13.906 7.93644 12.9429 8.23833 12.052C8.54022 11.1611 9.1137 10.3872 9.87816 9.83907C10.6426 9.29096 11.5596 8.99619 12.5003 8.99619C13.4409 8.99619 14.3579 9.29096 15.1224 9.83907C15.8869 10.3872 16.4603 11.1611 16.7622 12.052C17.0641 12.9429 17.0792 13.906 16.8055 14.8059C16.5317 15.7058 15.9828 16.4973 15.2359 17.0692C16.5632 17.6417 17.6719 18.6249 18.399 19.8742ZM12.5003 16.4992C13.0936 16.4992 13.6736 16.3232 14.167 15.9936C14.6603 15.664 15.0449 15.1954 15.2719 14.6472C15.499 14.0991 15.5584 13.4959 15.4426 12.9139C15.3269 12.332 15.0412 11.7974 14.6216 11.3779C14.202 10.9583 13.6675 10.6726 13.0856 10.5568C12.5036 10.4411 11.9004 10.5005 11.3522 10.7276C10.8041 10.9546 10.3355 11.3391 10.0059 11.8325C9.67623 12.3258 9.50028 12.9058 9.50028 13.4992C9.50028 14.2948 9.81635 15.0579 10.379 15.6205C10.9416 16.1831 11.7046 16.4992 12.5003 16.4992ZM7.25028 11.2492C7.25028 11.0503 7.17126 10.8595 7.03061 10.7189C6.88996 10.5782 6.69919 10.4992 6.50028 10.4992C6.07946 10.4992 5.66709 10.3811 5.31 10.1584C4.95291 9.93579 4.66542 9.61746 4.48019 9.2396C4.29495 8.86175 4.21939 8.43952 4.26209 8.02087C4.30479 7.60223 4.46405 7.20395 4.72176 6.87127C4.97947 6.5386 5.32531 6.28487 5.72 6.13889C6.11469 5.99292 6.5424 5.96056 6.95456 6.04549C7.36672 6.13041 7.7468 6.32923 8.05163 6.61934C8.35646 6.90945 8.57383 7.27924 8.67903 7.68669C8.72876 7.87939 8.853 8.04444 9.02442 8.14553C9.19584 8.24662 9.4004 8.27548 9.59309 8.22575C9.78579 8.17602 9.95084 8.05179 10.0519 7.88037C10.153 7.70895 10.1819 7.50439 10.1322 7.31169C9.98613 6.74667 9.71026 6.22353 9.32648 5.7839C8.9427 5.34426 8.46161 5.00026 7.92149 4.77927C7.38137 4.55828 6.79712 4.4664 6.21524 4.51094C5.63336 4.55548 5.06991 4.73521 4.56971 5.03583C4.06952 5.33645 3.64639 5.74966 3.33399 6.24258C3.02159 6.73551 2.82855 7.29454 2.77022 7.8752C2.71189 8.45586 2.78989 9.04212 2.99801 9.58733C3.20613 10.1325 3.53862 10.6217 3.96903 11.0158C2.95023 11.4577 2.0647 12.1584 1.40028 13.0483C1.34113 13.127 1.29807 13.2167 1.27357 13.3122C1.24907 13.4076 1.2436 13.5069 1.25749 13.6045C1.27137 13.702 1.30434 13.7959 1.35449 13.8807C1.40465 13.9655 1.47102 14.0396 1.54981 14.0987C1.62861 14.1579 1.71828 14.2009 1.81371 14.2254C1.90915 14.2499 2.00847 14.2554 2.10602 14.2415C2.20356 14.2276 2.29742 14.1947 2.38222 14.1445C2.46703 14.0944 2.54112 14.028 2.60028 13.9492C3.05233 13.3416 3.64073 12.8486 4.31812 12.5099C4.9955 12.1712 5.74295 11.9963 6.50028 11.9992C6.69919 11.9992 6.88996 11.9202 7.03061 11.7795C7.17126 11.6389 7.25028 11.4481 7.25028 11.2492Z" fill="white"/>
</svg>
