<svg width="17" height="16" viewBox="0 0 17 16" fill="none" xmlns="http://www.w3.org/2000/svg">
<path d="M2.09961 5.39922C2.09961 4.81574 2.33139 4.25616 2.74397 3.84358C3.15655 3.431 3.71613 3.19922 4.29961 3.19922H12.6996C13.2831 3.19922 13.8427 3.431 14.2552 3.84358C14.6678 4.25616 14.8996 4.81574 14.8996 5.39922V8.27202C14.6946 7.9629 14.4208 7.7055 14.0996 7.52002V5.39922C14.0996 5.02792 13.9521 4.67182 13.6896 4.40927C13.427 4.14672 13.0709 3.99922 12.6996 3.99922H4.29961C3.92831 3.99922 3.57221 4.14672 3.30966 4.40927C3.04711 4.67182 2.89961 5.02792 2.89961 5.39922V10.5992C2.89961 11.372 3.52681 11.9992 4.29961 11.9992H9.69961C9.52188 12.236 9.39893 12.5092 9.33961 12.7992H4.29961C4.0107 12.7992 3.72462 12.7423 3.45771 12.6318C3.19079 12.5212 2.94826 12.3591 2.74397 12.1549C2.33139 11.7423 2.09961 11.1827 2.09961 10.5992V5.39922ZM12.8996 11.1992C13.324 11.1992 13.7309 11.0306 14.031 10.7306C14.331 10.4305 14.4996 10.0236 14.4996 9.59922C14.4996 9.17487 14.331 8.76791 14.031 8.46785C13.7309 8.16779 13.324 7.99922 12.8996 7.99922C12.4753 7.99922 12.0683 8.16779 11.7682 8.46785C11.4682 8.76791 11.2996 9.17487 11.2996 9.59922C11.2996 10.0236 11.4682 10.4305 11.7682 10.7306C12.0683 11.0306 12.4753 11.1992 12.8996 11.1992ZM12.8996 15.1992C14.8996 15.1992 15.6996 14.1952 15.6996 13.1992C15.6996 12.881 15.5732 12.5757 15.3481 12.3507C15.1231 12.1256 14.8179 11.9992 14.4996 11.9992H11.2996C10.9813 11.9992 10.6761 12.1256 10.4511 12.3507C10.226 12.5757 10.0996 12.881 10.0996 13.1992C10.0996 14.1992 10.8996 15.1992 12.8996 15.1992ZM4.49961 4.79922C4.28744 4.79922 4.08395 4.8835 3.93392 5.03353C3.7839 5.18356 3.69961 5.38705 3.69961 5.59922V7.99922C3.69961 8.21139 3.7839 8.41488 3.93392 8.5649C4.08395 8.71493 4.28744 8.79922 4.49961 8.79922H7.69961C7.91178 8.79922 8.11527 8.71493 8.26529 8.5649C8.41532 8.41488 8.49961 8.21139 8.49961 7.99922V5.59922C8.49961 5.38705 8.41532 5.18356 8.26529 5.03353C8.11527 4.8835 7.91178 4.79922 7.69961 4.79922H4.49961Z" fill="#FFFCFC"/>
</svg>
