<svg width="25" height="24" viewBox="0 0 25 24" fill="none" xmlns="http://www.w3.org/2000/svg">
<path d="M14.5 10H12C11.6022 10 11.2206 10.158 10.9393 10.4393C10.658 10.7206 10.5 11.1022 10.5 11.5C10.5 11.8978 10.658 12.2794 10.9393 12.5607C11.2206 12.842 11.6022 13 12 13H13C13.3978 13 13.7794 13.158 14.0607 13.4393C14.342 13.7206 14.5 14.1022 14.5 14.5C14.5 14.8978 14.342 15.2794 14.0607 15.5607C13.7794 15.842 13.3978 16 13 16H10.5M12.5 9V10M12.5 16V17" stroke="white" stroke-width="2" stroke-linecap="round" stroke-linejoin="round"/>
<path d="M17.5 4V5.882C17.5 6.567 17.887 7.194 18.5 7.5C19.113 7.806 19.5 8.433 19.5 9.118V18C19.5 18.7956 19.1839 19.5587 18.6213 20.1213C18.0587 20.6839 17.2956 21 16.5 21H8.5C7.70435 21 6.94129 20.6839 6.37868 20.1213C5.81607 19.5587 5.5 18.7956 5.5 18V9.118C5.5 8.433 5.887 7.806 6.5 7.5C7.113 7.194 7.5 6.567 7.5 5.882V4M6.5 4H18.5" stroke="white" stroke-width="2" stroke-linecap="round" stroke-linejoin="round"/>
</svg>
