<svg width="17" height="16" viewBox="0 0 17 16" fill="none" xmlns="http://www.w3.org/2000/svg">
<path fill-rule="evenodd" clip-rule="evenodd" d="M9.3 3.59961H4.5C3.96957 3.59961 3.46086 3.81032 3.08579 4.1854C2.71071 4.56047 2.5 5.06918 2.5 5.59961V9.59961C2.5 10.13 2.71071 10.6388 3.08579 11.0138C3.46086 11.3889 3.96957 11.5996 4.5 11.5996H9.3C9.83043 11.5996 10.3391 11.3889 10.7142 11.0138C11.0893 10.6388 11.3 10.13 11.3 9.59961V5.59961C11.3 5.06918 11.0893 4.56047 10.7142 4.1854C10.3391 3.81032 9.83043 3.59961 9.3 3.59961ZM3.3 5.59961C3.3 5.28135 3.42643 4.97612 3.65147 4.75108C3.87652 4.52604 4.18174 4.39961 4.5 4.39961H9.3C9.61826 4.39961 9.92348 4.52604 10.1485 4.75108C10.3736 4.97612 10.5 5.28135 10.5 5.59961V9.59961C10.5 9.91787 10.3736 10.2231 10.1485 10.4481C9.92348 10.6732 9.61826 10.7996 9.3 10.7996H4.5C4.18174 10.7996 3.87652 10.6732 3.65147 10.4481C3.42643 10.2231 3.3 9.91787 3.3 9.59961V5.59961Z" fill="#FFFDFD"/>
<path fill-rule="evenodd" clip-rule="evenodd" d="M13.0825 4.46332L10.7001 6.01292C10.6448 6.04881 10.5991 6.09783 10.5673 6.15561C10.5355 6.2134 10.5185 6.27816 10.5177 6.34412L10.4961 8.43372C10.4953 8.50111 10.5115 8.5676 10.5433 8.62704C10.575 8.68648 10.6213 8.73694 10.6777 8.77372L13.0809 10.3353C13.1413 10.3747 13.2112 10.397 13.2832 10.3999C13.3551 10.4028 13.4266 10.3862 13.4899 10.3519C13.5533 10.3175 13.6062 10.2667 13.643 10.2048C13.6799 10.1429 13.6993 10.0722 13.6993 10.0001V4.79932C13.6995 4.7272 13.6801 4.65638 13.6433 4.59435C13.6065 4.53232 13.5537 4.4814 13.4903 4.44697C13.4269 4.41253 13.3554 4.39588 13.2834 4.39876C13.2113 4.40164 13.1413 4.42395 13.0809 4.46332M12.9001 9.26332L11.2993 8.22252L11.3161 6.56652L12.9001 5.53692V9.26332Z" fill="#FFFDFD"/>
</svg>
